<?xml version="1.0" standalone="no"?>
<!DOCTYPE svg PUBLIC "-//W3C//DTD SVG 20010904//EN"
 "http://www.w3.org/TR/2001/REC-SVG-20010904/DTD/svg10.dtd">
<svg version="1.0" xmlns="http://www.w3.org/2000/svg"
 width="600.000000pt" height="600.000000pt" viewBox="0 0 600.000000 600.000000"
 preserveAspectRatio="xMidYMid meet">
<metadata>
Created by potrace 1.11, written by Peter Selinger 2001-2013
</metadata>
<g transform="translate(0.000000,600.000000) scale(0.100000,-0.100000)"
fill="#000000" stroke="none">
<path d="M250 4000 l0 -1750 1125 0 1125 0 0 -1000 0 -1000 375 0 375 0 0
1000 0 1000 125 0 125 0 0 -125 0 -125 125 0 125 0 0 -125 0 -125 125 0 125 0
0 -125 0 -125 125 0 125 0 0 125 0 125 125 0 125 0 0 125 0 125 125 0 125 0 0
125 0 125 125 0 125 0 0 -1000 0 -1000 375 0 375 0 0 1625 0 1625 -375 0 -375
0 0 -125 0 -125 -125 0 -125 0 0 -125 0 -125 -125 0 -125 0 0 -125 0 -125
-125 0 -125 0 0 -125 0 -125 -125 0 -125 0 0 125 0 125 -125 0 -125 0 0 125 0
125 -125 0 -125 0 0 625 0 625 -1000 0 -1000 0 0 -500 0 -500 250 0 250 0 0
250 0 250 375 0 375 0 0 -125 0 -125 -125 0 -125 0 0 -250 0 -250 -750 0 -750
0 0 1000 0 1000 1250 0 1250 0 0 375 0 375 -1625 0 -1625 0 0 -1750z"/>
</g>
</svg>
