<?xml version="1.0" encoding="UTF-8" standalone="no"?>
<!DOCTYPE svg PUBLIC "-//W3C//DTD SVG 1.1//EN" "http://www.w3.org/Graphics/SVG/1.1/DTD/svg11.dtd">
<svg version="1.1" xmlns="http://www.w3.org/2000/svg" xmlns:xlink="http://www.w3.org/1999/xlink" preserveAspectRatio="xMidYMid meet" viewBox="0 0 640 640" width="640" height="640"><defs><path d="M392.05 611.27L380.42 613.9L368.63 616.07L356.68 617.77L344.59 619L332.35 619.75L320 620L307.64 619.75L295.41 619L283.31 617.77L271.36 616.07L259.57 613.9L247.94 611.27L236.48 608.2L227.48 605.4L412.51 605.4L403.51 608.2L392.05 611.27ZM506.3 555.08L497.12 562.08L487.68 568.73L479.09 574.3L160.9 574.3L152.31 568.73L142.87 562.08L133.7 555.08L124.8 547.74L120.33 543.75L519.67 543.75L515.19 547.74L506.3 555.08ZM568.73 487.68L562.08 497.12L555.08 506.3L549.84 512.65L90.16 512.65L84.91 506.3L77.91 497.12L71.26 487.68L64.97 477.97L63.25 475.08L576.74 475.08L575.02 477.97L568.73 487.68ZM596.41 436.72L591.65 447.38L590.76 449.16L49.23 449.16L48.35 447.38L43.59 436.72L39.24 425.85L36.21 417.34L603.78 417.34L600.76 425.85L596.41 436.72ZM613.9 380.42L611.27 392.05L609.49 398.68L30.5 398.68L28.72 392.05L26.1 380.42L23.93 368.63L22.82 360.85L617.18 360.85L616.07 368.63L613.9 380.42ZM344.59 20.99L356.68 22.22L368.63 23.93L380.42 26.1L392.05 28.72L403.51 31.79L414.78 35.3L425.85 39.24L436.72 43.59L447.38 48.35L457.81 53.5L468.02 59.05L477.97 64.97L487.68 71.26L497.12 77.91L506.3 84.91L515.19 92.25L523.79 99.92L532.09 107.91L540.08 116.2L547.74 124.8L555.08 133.7L562.08 142.87L568.73 152.31L575.02 162.02L580.95 171.98L586.49 182.18L591.65 192.61L596.41 203.27L600.76 214.14L604.69 225.21L608.2 236.48L611.27 247.94L613.9 259.57L616.07 271.36L617.77 283.31L619 295.41L619.75 307.64L620 320L619.75 332.35L619 344.59L618.35 351L21.64 351L20.99 344.59L20.25 332.35L20 320L20.25 307.64L20.99 295.41L22.22 283.31L23.93 271.36L26.1 259.57L28.72 247.94L31.79 236.48L35.3 225.21L39.24 214.14L43.59 203.27L48.35 192.61L53.5 182.18L59.05 171.98L64.97 162.02L71.26 152.31L77.91 142.87L84.91 133.7L92.25 124.8L99.92 116.2L107.91 107.91L116.2 99.92L124.8 92.25L133.7 84.91L142.87 77.91L152.31 71.26L162.02 64.97L171.98 59.05L182.18 53.5L192.61 48.35L203.27 43.59L214.14 39.24L225.22 35.3L236.48 31.79L247.94 28.72L259.57 26.1L271.36 23.93L283.31 22.22L295.41 20.99L307.64 20.25L320 20L332.35 20.25L344.59 20.99Z" id="bE9ks5exa"></path><linearGradient id="gradienti2iFjWbrcM" gradientUnits="userSpaceOnUse" x1="320" y1="20" x2="320" y2="640"><stop style="stop-color: #01aa0f;stop-opacity: 1" offset="0%"></stop><stop style="stop-color: #080b03;stop-opacity: 1" offset="100%"></stop></linearGradient></defs><g><g><g><use xlink:href="#bE9ks5exa" opacity="1" fill="url(#gradienti2iFjWbrcM)"></use><g><use xlink:href="#bE9ks5exa" opacity="1" fill-opacity="0" stroke="#7ceb13" stroke-width="0" stroke-opacity="1"></use></g></g></g></g></svg>